<svg width="135" height="27" viewBox="0 0 135 27" fill="none" xmlns="http://www.w3.org/2000/svg">
<g clip-path="url(#clip0_9934_141704)">
<path d="M39.8071 7.55322L36.923 14.2179L34.0315 7.55322H32.2383V16.325H33.8148V10.6166L36.2506 16.325H37.5805L40.0163 10.6166V16.325H41.6003V7.55322H39.8071Z" fill="#004F9F"/>
<path d="M47.0179 7.38144C46.424 7.3496 45.8305 7.45118 45.281 7.67873C44.7315 7.90629 44.24 8.25406 43.8425 8.69646C43.0839 9.60458 42.6945 10.7647 42.7516 11.9466C42.7 13.1255 43.0889 14.2814 43.8425 15.1893C44.245 15.6245 44.7377 15.9663 45.2863 16.1909C45.8348 16.4155 46.4259 16.5174 47.0179 16.4894C47.6083 16.5177 48.1976 16.4167 48.7448 16.1934C49.2921 15.9701 49.7839 15.63 50.1859 15.1968C50.9545 14.2931 51.3523 13.1318 51.2992 11.9466C51.3541 10.7602 50.9592 9.59682 50.1934 8.68899C49.7922 8.25169 49.2999 7.90787 48.7511 7.68193C48.2024 7.45598 47.6107 7.35341 47.0179 7.38144ZM49.0129 14.2554C48.7633 14.5333 48.4545 14.7515 48.1091 14.8938C47.7638 15.0361 47.3908 15.0988 47.0179 15.0773C46.6395 15.0976 46.2614 15.0307 45.9129 14.8817C45.5644 14.7328 45.2548 14.5056 45.0081 14.218C44.5314 13.5711 44.2938 12.7789 44.3356 11.9765C44.2945 11.1741 44.532 10.3822 45.0081 9.73499C45.2515 9.44237 45.5601 9.21092 45.9091 9.0591C46.2582 8.90729 46.6379 8.83936 47.0179 8.86082C47.3913 8.83481 47.7656 8.89546 48.1117 9.03803C48.4577 9.18061 48.7662 9.40126 49.0129 9.68273C49.5024 10.358 49.7451 11.181 49.7003 12.0139C49.748 12.8401 49.5047 13.657 49.0129 14.3226" fill="#004F9F"/>
<path d="M58.5693 13.2243C58.4579 13.7802 58.1633 14.2827 57.7325 14.6514C57.3092 14.9488 56.7998 15.0984 56.283 15.0772C55.9039 15.1065 55.5232 15.0452 55.1724 14.8984C54.8217 14.7516 54.5109 14.5235 54.2656 14.2329C53.8242 13.5556 53.6145 12.7533 53.6679 11.9466C53.6286 11.1533 53.8433 10.3682 54.2806 9.70512C54.5069 9.40362 54.8056 9.16408 55.1491 9.00866C55.4926 8.85325 55.8697 8.78698 56.2456 8.81599C56.751 8.78845 57.2524 8.91902 57.6802 9.18957C58.0742 9.4734 58.3422 9.89953 58.4273 10.3776V10.4448H59.9665V10.3402C59.8642 9.50965 59.447 8.75009 58.8009 8.21827C58.0678 7.65618 57.1612 7.36807 56.2381 7.40383C55.6322 7.36735 55.0263 7.47417 54.4694 7.71562C53.9125 7.95708 53.4203 8.32641 53.0328 8.7936C52.3511 9.70768 52.0078 10.83 52.0615 11.9691C52.0023 13.0983 52.332 14.2138 52.9954 15.1296C53.3929 15.6021 53.8967 15.9738 54.4656 16.2141C55.0344 16.4543 55.6521 16.5564 56.268 16.5118C57.1507 16.5367 58.0136 16.2482 58.7038 15.6974C59.4487 15.093 59.9416 14.2324 60.086 13.284V13.1869H58.5469L58.5693 13.2243Z" fill="#004F9F"/>
<path d="M64.9232 7.54578H61.2695V16.325H62.8535V13.0225H64.9007C67.0451 13.0225 68.1285 12.096 68.1285 10.273C68.1285 8.44987 67.0526 7.54578 64.9232 7.54578ZM62.8535 8.92806H64.8186C65.2779 8.88871 65.7374 9.0016 66.1261 9.24934C66.2713 9.37482 66.3843 9.53318 66.4558 9.71126C66.5273 9.88933 66.5552 10.0819 66.537 10.273C66.5561 10.4678 66.5295 10.6644 66.4595 10.8473C66.3895 11.0301 66.2779 11.1941 66.1336 11.3264C65.7388 11.5665 65.2795 11.6787 64.8186 11.6477H62.8535V8.92806Z" fill="#004F9F"/>
<path d="M70.7481 12.5144H75.2535V11.1396H70.7481V8.92801H75.5374V7.55322H69.1641V16.325H75.7466V14.9502H70.7481V12.5144Z" fill="#004F9F"/>
<path d="M86.0657 13.7547C86.0463 13.9294 85.9896 14.0979 85.8993 14.2488C85.8091 14.3996 85.6874 14.5293 85.5427 14.6289C85.3139 14.7533 85.0556 14.8127 84.7955 14.8008H84.3472V16.0859L81.0821 7.54578H79.386L76.0312 16.325H77.7199L78.467 14.1657H81.9488L82.696 16.325H85.0794C85.7039 16.3613 86.3179 16.1522 86.7904 15.7422C87.2407 15.2395 87.5182 14.6059 87.5824 13.934L88.3894 8.92806H90.6907V16.325H92.2746V7.54578H87.0445L86.0657 13.7547ZM81.4856 12.8357H78.9751L80.2378 9.33899L81.4856 12.8357Z" fill="#004F9F"/>
<path d="M99.9716 13.2243C99.8544 13.778 99.5608 14.2788 99.1348 14.6514C98.711 14.9478 98.202 15.0974 97.6853 15.0773C97.3061 15.1072 96.9253 15.0461 96.5744 14.8993C96.2235 14.7524 95.9128 14.524 95.6679 14.233C95.2265 13.5556 95.0168 12.7534 95.0702 11.9467C95.0256 11.1528 95.2406 10.366 95.6829 9.70515C95.9092 9.40365 96.2079 9.16411 96.5514 9.0087C96.8949 8.85328 97.272 8.78701 97.6479 8.81602C98.1532 8.78947 98.6543 8.91997 99.0825 9.18961C99.4719 9.47766 99.7387 9.90181 99.8296 10.3776V10.4448H101.369V10.3402C101.272 9.50959 100.857 8.74889 100.211 8.2183C99.4776 7.65621 98.571 7.3681 97.6479 7.40387C97.041 7.36798 96.4341 7.47506 95.8761 7.71643C95.3181 7.9578 94.8246 8.32677 94.4351 8.79363C93.7567 9.7094 93.4138 10.8305 93.4638 11.9691C93.4047 13.0984 93.7343 14.2138 94.3978 15.1296C94.7956 15.6017 95.2995 15.973 95.8682 16.2133C96.437 16.4535 97.0545 16.5558 97.6703 16.5118C98.5549 16.5347 99.4196 16.2465 100.114 15.6974C100.856 15.0922 101.347 14.2316 101.488 13.2841V13.1869H99.9417L99.9716 13.2243Z" fill="#004F9F"/>
<path d="M102.012 8.92801H104.829V16.325H106.413V8.92801H109.229V7.55322H102.012V8.92801Z" fill="#004F9F"/>
<path d="M113.755 7.54578H110.102V16.325H111.678V13.0225H113.725C115.87 13.0225 116.961 12.096 116.961 10.273C116.961 8.44987 115.877 7.54578 113.755 7.54578ZM111.678 8.92806H113.643C114.102 8.88871 114.562 9.0016 114.951 9.24934C115.097 9.37402 115.211 9.53229 115.282 9.71057C115.354 9.88885 115.381 10.0818 115.362 10.273C115.38 10.4671 115.354 10.6628 115.285 10.8454C115.216 11.0279 115.107 11.1924 114.966 11.3264C114.569 11.568 114.107 11.6803 113.643 11.6477H111.678V8.92806Z" fill="#004F9F"/>
<path d="M121.878 7.38144C121.284 7.3496 120.691 7.45118 120.141 7.67873C119.592 7.90629 119.1 8.25406 118.703 8.69646C117.941 9.60274 117.551 10.7642 117.612 11.9466C117.559 13.1233 117.948 14.2773 118.703 15.1819C119.104 15.6192 119.596 15.9629 120.145 16.1889C120.694 16.4148 121.285 16.5174 121.878 16.4894C122.468 16.5177 123.058 16.4167 123.605 16.1934C124.152 15.9701 124.644 15.63 125.046 15.1968C125.809 14.2905 126.204 13.1304 126.152 11.9466C126.207 10.7602 125.812 9.59682 125.046 8.68899C124.646 8.25227 124.155 7.90878 123.607 7.68284C123.06 7.45689 122.47 7.35401 121.878 7.38144ZM121.878 8.7936C122.25 8.76761 122.623 8.8283 122.968 8.97091C123.313 9.11351 123.62 9.33414 123.865 9.61546C124.361 10.2881 124.607 11.1124 124.56 11.9466C124.609 12.7742 124.363 13.5922 123.865 14.2554C123.617 14.5327 123.31 14.7506 122.965 14.8929C122.621 15.0352 122.25 15.0982 121.878 15.0773C121.499 15.0988 121.121 15.0324 120.772 14.8833C120.424 14.7342 120.114 14.5065 119.868 14.218C119.389 13.5721 119.149 12.7798 119.188 11.9765C119.149 11.1732 119.389 10.3812 119.868 9.73499C120.111 9.44192 120.42 9.21009 120.769 9.05824C121.118 8.90638 121.498 8.83877 121.878 8.86082" fill="#004F9F"/>
<path d="M129.446 6.73888C129.905 7.02803 130.444 7.16403 130.985 7.12737C131.529 7.16617 132.071 7.03006 132.532 6.73888C132.903 6.41895 133.141 5.97073 133.197 5.4836V5.37903H131.949V5.45373C131.936 5.68746 131.838 5.90834 131.672 6.07389C131.464 6.19501 131.225 6.25215 130.985 6.23824C130.747 6.25435 130.51 6.197 130.305 6.07389C130.138 5.90869 130.037 5.68814 130.021 5.45373V5.37903H128.773V5.47616C128.794 5.72044 128.864 5.95808 128.978 6.17499C129.092 6.3919 129.249 6.58365 129.438 6.73888" fill="#004F9F"/>
<path d="M133.107 7.55322L128.893 13.7173V7.55322H127.309V16.325H128.848L133.017 10.243V16.325H134.616V7.55322H133.107Z" fill="#004F9F"/>
<path d="M9.57257 21.331H9.11679V20.0832H8.76562L8.93 19.7021H9.57257V21.331Z" fill="#004F9F"/>
<path d="M10.5045 20.7781C10.4378 20.7901 10.3695 20.7901 10.3028 20.7781C10.2372 20.7782 10.1723 20.765 10.1119 20.7393C10.0515 20.7136 9.99702 20.676 9.95161 20.6286C9.85511 20.5228 9.80412 20.3832 9.80964 20.2401C9.80434 20.1542 9.81915 20.0683 9.85288 19.9892C9.8866 19.9101 9.93832 19.84 10.0039 19.7843C10.1374 19.6721 10.3078 19.6135 10.4821 19.62C10.6566 19.612 10.8275 19.6708 10.9603 19.7843C11.023 19.8391 11.0729 19.9069 11.1065 19.9831C11.14 20.0593 11.1564 20.142 11.1545 20.2252C11.1618 20.2997 11.1618 20.3748 11.1545 20.4493C11.1292 20.5329 11.0941 20.6131 11.0499 20.6884C11 20.7826 10.9425 20.8725 10.8781 20.9574L10.639 21.2861H10.0786L10.3102 21.0097L10.5344 20.7407L10.5045 20.7781ZM10.5045 20.4867C10.5335 20.4896 10.5628 20.4858 10.5901 20.4754C10.6173 20.465 10.6418 20.4484 10.6614 20.4269C10.6823 20.4051 10.6983 20.3793 10.7086 20.351C10.7189 20.3227 10.7232 20.2926 10.7212 20.2625C10.7221 20.2337 10.7174 20.205 10.7071 20.1781C10.6969 20.1511 10.6813 20.1265 10.6614 20.1056C10.6397 20.0848 10.6138 20.0687 10.5855 20.0584C10.5572 20.0481 10.5271 20.0439 10.497 20.0459C10.4682 20.0445 10.4393 20.049 10.4123 20.0593C10.3853 20.0696 10.3608 20.0853 10.3401 20.1056C10.3202 20.1265 10.3047 20.1511 10.2944 20.1781C10.2841 20.205 10.2794 20.2337 10.2804 20.2625C10.2784 20.2926 10.2826 20.3227 10.2929 20.351C10.3032 20.3793 10.3193 20.4051 10.3401 20.4269C10.3595 20.4493 10.3836 20.467 10.4108 20.4787C10.438 20.4903 10.4675 20.4956 10.497 20.4941L10.5045 20.4867Z" fill="#004F9F"/>
<path d="M11.9767 20.7781C11.91 20.7901 11.8416 20.7901 11.7749 20.7781C11.7105 20.778 11.6467 20.7647 11.5875 20.739C11.5284 20.7133 11.4752 20.6757 11.4312 20.6286C11.332 20.524 11.2783 20.3843 11.2818 20.2401C11.2781 20.1544 11.2937 20.0691 11.3273 19.9902C11.3609 19.9114 11.4117 19.841 11.476 19.7843C11.6135 19.674 11.7855 19.6158 11.9617 19.62C12.1354 19.6175 12.3045 19.6756 12.4399 19.7843C12.5017 19.8394 12.5504 19.9076 12.5827 19.9838C12.615 20.06 12.6301 20.1425 12.6267 20.2252C12.638 20.2995 12.638 20.375 12.6267 20.4493C12.604 20.5326 12.5714 20.6129 12.5296 20.6884C12.4769 20.7809 12.4195 20.8707 12.3577 20.9574L12.1112 21.2861H11.5508L11.7899 21.0097L12.0065 20.7407L11.9767 20.7781ZM11.9767 20.4867C12.0067 20.4887 12.0368 20.4844 12.0651 20.4741C12.0934 20.4638 12.1193 20.4477 12.141 20.4269C12.1804 20.3812 12.2016 20.3228 12.2008 20.2625C12.2023 20.233 12.197 20.2035 12.1853 20.1763C12.1737 20.1491 12.156 20.1249 12.1335 20.1056C12.1129 20.0853 12.0884 20.0696 12.0614 20.0593C12.0343 20.049 12.0055 20.0444 11.9767 20.0459C11.9477 20.0429 11.9184 20.0467 11.8911 20.0571C11.8639 20.0675 11.8394 20.0841 11.8197 20.1056C11.7973 20.1249 11.7796 20.1491 11.7679 20.1763C11.7563 20.2035 11.751 20.233 11.7525 20.2625C11.7516 20.3228 11.7729 20.3812 11.8123 20.4269C11.8334 20.4491 11.8589 20.4665 11.8872 20.4781C11.9156 20.4897 11.9461 20.4952 11.9767 20.4941V20.4867Z" fill="#004F9F"/>
<path d="M13.809 20.4717C13.8934 20.5056 13.9652 20.5647 14.0147 20.6409C14.0642 20.7172 14.0889 20.8068 14.0855 20.8976C14.0855 20.9888 14.0567 21.0778 14.0033 21.1517C13.9411 21.2268 13.8616 21.2857 13.7717 21.3235C13.6639 21.3627 13.5501 21.3829 13.4354 21.3833C13.2704 21.3909 13.1075 21.3436 12.9722 21.2488C12.9134 21.2114 12.8652 21.1594 12.8325 21.0978C12.7998 21.0363 12.7836 20.9673 12.7854 20.8976C12.7824 20.8079 12.8065 20.7193 12.8544 20.6433C12.9024 20.5674 12.972 20.5076 13.0544 20.4717C12.981 20.4452 12.9177 20.3964 12.8735 20.3321C12.8293 20.2677 12.8063 20.1912 12.8078 20.1131C12.8064 20.0455 12.8229 19.9788 12.8557 19.9197C12.8885 19.8606 12.9365 19.8113 12.9946 19.7769C13.1273 19.6962 13.2801 19.6548 13.4354 19.6574C13.5921 19.6524 13.7463 19.6968 13.8763 19.7844C13.9319 19.8191 13.9777 19.8676 14.0091 19.9252C14.0405 19.9828 14.0565 20.0475 14.0556 20.1131C14.0571 20.1912 14.0342 20.2677 13.9899 20.3321C13.9457 20.3964 13.8824 20.4452 13.809 20.4717ZM13.428 21.0321C13.4539 21.0333 13.4799 21.0294 13.5043 21.0204C13.5286 21.0114 13.551 20.9976 13.5699 20.9799C13.589 20.9615 13.6042 20.9395 13.6145 20.9151C13.6248 20.8906 13.6299 20.8644 13.6297 20.8379C13.6299 20.8114 13.6248 20.7851 13.6145 20.7607C13.6042 20.7363 13.589 20.7143 13.5699 20.6959C13.551 20.6782 13.5286 20.6644 13.5043 20.6554C13.4799 20.6464 13.4539 20.6424 13.428 20.6436C13.402 20.642 13.3759 20.6457 13.3515 20.6547C13.327 20.6638 13.3047 20.6778 13.286 20.6959C13.2652 20.7129 13.2489 20.7347 13.2385 20.7595C13.2281 20.7842 13.2239 20.8111 13.2263 20.8379C13.2239 20.8646 13.2281 20.8915 13.2385 20.9163C13.2489 20.941 13.2652 20.9629 13.286 20.9799C13.3036 20.9974 13.3246 21.0111 13.3478 21.0201C13.3709 21.0291 13.3957 21.0332 13.4205 21.0321H13.428ZM13.428 20.2849C13.4744 20.2863 13.5197 20.2703 13.555 20.2401C13.5714 20.2248 13.5845 20.2063 13.5935 20.1858C13.6025 20.1652 13.6072 20.143 13.6073 20.1206C13.6066 20.0993 13.6017 20.0784 13.5927 20.0592C13.5837 20.0399 13.5709 20.0227 13.555 20.0085C13.5197 19.9783 13.4744 19.9623 13.428 19.9637C13.3838 19.9627 13.341 19.9788 13.3084 20.0085C13.2914 20.0216 13.2777 20.0387 13.2686 20.0582C13.2595 20.0777 13.2552 20.0991 13.2561 20.1206C13.2546 20.1432 13.2587 20.1659 13.2678 20.1867C13.2769 20.2075 13.2908 20.2258 13.3084 20.2401C13.3437 20.2703 13.389 20.2863 13.4354 20.2849H13.428Z" fill="#004F9F"/>
<path d="M22.2282 0.500062H18.1786C16.8434 0.524985 15.5306 0.847838 14.3362 1.44506C13.1417 2.04227 12.0958 2.89877 11.2748 3.95197C10.4311 2.86781 9.34952 1.99201 8.11362 1.3922C6.87773 0.79239 5.5205 0.484601 4.14677 0.492583H0V2.30076H4.15424C5.37887 2.29819 6.58397 2.60756 7.6559 3.19974C8.72783 3.79192 9.63127 4.64735 10.281 5.6854C10.6484 6.2592 10.9303 6.88338 11.1178 7.53836L11.2748 8.06138L11.4242 7.53836C11.6118 6.88338 11.8936 6.2592 12.261 5.6854C12.9107 4.64735 13.8142 3.79192 14.8861 3.19974C15.958 2.60756 17.1631 2.29819 18.3878 2.30076H20.5695V12.5519H22.3776V0.492583L22.2282 0.500062Z" fill="#E30613"/>
<path d="M18.2327 13.7324C17.1131 13.7284 16.0405 13.2814 15.2494 12.4889C14.4584 11.6965 14.0132 10.6231 14.0112 9.50339C14.0132 8.38439 14.4586 7.31182 15.2499 6.52057C16.0411 5.72931 17.1137 5.28391 18.2327 5.28193H19.4058V3.47375H18.2327C16.6342 3.47573 15.1017 4.11163 13.9713 5.24198C12.841 6.37233 12.2051 7.90484 12.2031 9.50339C12.2051 11.1019 12.841 12.6345 13.9713 13.7648C15.1017 14.8952 16.6342 15.5311 18.2327 15.533H20.6311V19.635C20.6311 20.8529 20.2501 22.8927 17.6424 22.8927H14.9078C13.5638 22.8775 12.2518 23.3026 11.172 24.1031C10.0917 23.3036 8.78003 22.8786 7.43617 22.8927H4.70152C2.11632 22.8927 1.71285 20.8529 1.71285 19.635V5.28193H4.1038C5.2228 5.28391 6.29541 5.72931 7.08667 6.52057C7.87793 7.31182 8.32333 8.38439 8.3253 9.50339C8.32334 10.6231 7.87817 11.6965 7.08713 12.4889C6.29608 13.2814 5.22348 13.7284 4.1038 13.7324H2.88591V15.533H4.1038C5.70235 15.5311 7.23486 14.8952 8.36521 13.7648C9.49555 12.6345 10.1315 11.1019 10.1334 9.50339C10.1315 7.90484 9.49555 6.37233 8.36521 5.24198C7.23486 4.11163 5.70235 3.47573 4.1038 3.47375H-0.0429688V19.635C-0.0429688 23.3334 2.40028 24.6485 4.68661 24.6485H7.42122C7.98579 24.6331 8.54775 24.731 9.07388 24.9363C9.60002 25.1416 10.0797 25.4502 10.4846 25.8439L11.1496 26.5911L11.8146 25.8439C12.2192 25.4498 12.6989 25.141 13.2251 24.9357C13.7513 24.7303 14.3133 24.6327 14.8779 24.6485H17.6126C19.8989 24.6485 22.3422 23.3334 22.3422 19.635V13.7324H18.2327Z" fill="#004F9F"/>
</g>
<defs>
<clipPath id="clip0_9934_141704">
<rect width="134.617" height="26.1135" fill="white" transform="translate(0 0.5)"/>
</clipPath>
</defs>
</svg>
