<svg width="25" height="25" viewBox="0 0 25 25" fill="none" xmlns="http://www.w3.org/2000/svg">
<path opacity="0.4" d="M4.49988 14.9796L2.97989 13.4596C2.35989 12.8396 2.35989 11.8196 2.97989 11.1996L4.49988 9.6796C4.75988 9.4196 4.96988 8.9096 4.96988 8.54959V6.39963C4.96988 5.51963 5.68989 4.79959 6.56989 4.79959H8.71988C9.07988 4.79959 9.58989 4.58962 9.84989 4.32962L11.3699 2.8096C11.9899 2.1896 13.0099 2.1896 13.6299 2.8096L15.1499 4.32962C15.4099 4.58962 15.9199 4.79959 16.2799 4.79959H18.4299C19.3099 4.79959 20.0299 5.51963 20.0299 6.39963V8.54959C20.0299 8.9096 20.2399 9.4196 20.4999 9.6796L22.0199 11.1996C22.6399 11.8196 22.6399 12.8396 22.0199 13.4596L20.4999 14.9796C20.2399 15.2396 20.0299 15.7496 20.0299 16.1096V18.2596C20.0299 19.1396 19.3099 19.8596 18.4299 19.8596H16.2799C15.9199 19.8596 15.4099 20.0696 15.1499 20.3296L13.6299 21.8496C13.0099 22.4696 11.9899 22.4696 11.3699 21.8496L9.84989 20.3296C9.58989 20.0696 9.07988 19.8596 8.71988 19.8596H6.56989C5.68989 19.8596 4.96988 19.1396 4.96988 18.2596V16.1096C4.96988 15.7396 4.75988 15.2296 4.49988 14.9796Z" fill="#9D9D9D"/>
<path d="M15.5049 16.3296C14.9449 16.3296 14.4949 15.8796 14.4949 15.3296C14.4949 14.7796 14.9449 14.3296 15.4949 14.3296C16.0449 14.3296 16.4949 14.7796 16.4949 15.3296C16.4949 15.8796 16.0549 16.3296 15.5049 16.3296Z" fill="#193D23"/>
<path d="M9.51489 10.3296C8.95489 10.3296 8.50488 9.87959 8.50488 9.32959C8.50488 8.77959 8.95488 8.32959 9.50488 8.32959C10.0549 8.32959 10.5049 8.77959 10.5049 9.32959C10.5049 9.87959 10.0649 10.3296 9.51489 10.3296Z" fill="#193D23"/>
<path d="M9.50482 16.0796C9.31482 16.0796 9.12482 16.0096 8.97482 15.8596C8.68482 15.5696 8.68482 15.0895 8.97482 14.7995L14.9748 8.79953C15.2648 8.50953 15.7448 8.50953 16.0348 8.79953C16.3248 9.08953 16.3248 9.56959 16.0348 9.85959L10.0348 15.8596C9.88482 16.0096 9.69482 16.0796 9.50482 16.0796Z" fill="#193D23"/>
</svg>
