<svg width="24" height="25" viewBox="0 0 24 25" fill="none" xmlns="http://www.w3.org/2000/svg">
<path opacity="0.4" d="M12.89 5.95325H5.10999C3.39999 5.95325 2 7.35323 2 9.06323V20.4232C2 21.8732 3.04 22.4932 4.31 21.7832L8.23999 19.5932C8.65999 19.3632 9.34 19.3632 9.75 19.5932L13.68 21.7832C14.95 22.4932 15.99 21.8732 15.99 20.4232V9.06323C16 7.35323 14.6 5.95325 12.89 5.95325Z" fill="#9D9D9D"/>
<path d="M22 5.18323V16.5432C22 17.9932 20.96 18.6032 19.69 17.9032L16 15.8432V9.06323C16 7.35323 14.6 5.95325 12.89 5.95325H8V5.18323C8 3.47323 9.39999 2.07324 11.11 2.07324H18.89C20.6 2.07324 22 3.47323 22 5.18323Z" fill="#193D23"/>
</svg>
