<svg width="25" height="25" viewBox="0 0 25 25" fill="none" xmlns="http://www.w3.org/2000/svg">
<path d="M14.25 10.8232C14.9404 10.8232 15.5 10.2636 15.5 9.57324C15.5 8.88289 14.9404 8.32324 14.25 8.32324C13.5596 8.32324 13 8.88289 13 9.57324C13 10.2636 13.5596 10.8232 14.25 10.8232Z" fill="#193D23"/>
<path d="M10.75 10.8232C11.4404 10.8232 12 10.2636 12 9.57324C12 8.88289 11.4404 8.32324 10.75 8.32324C10.0596 8.32324 9.5 8.88289 9.5 9.57324C9.5 10.2636 10.0596 10.8232 10.75 10.8232Z" fill="#193D23"/>
<path d="M16 13.8232C16.6904 13.8232 17.25 13.2636 17.25 12.5732C17.25 11.8829 16.6904 11.3232 16 11.3232C15.3096 11.3232 14.75 11.8829 14.75 12.5732C14.75 13.2636 15.3096 13.8232 16 13.8232Z" fill="#193D23"/>
<path d="M9 13.8232C9.69036 13.8232 10.25 13.2636 10.25 12.5732C10.25 11.8829 9.69036 11.3232 9 11.3232C8.30964 11.3232 7.75 11.8829 7.75 12.5732C7.75 13.2636 8.30964 13.8232 9 13.8232Z" fill="#193D23"/>
<path d="M10.75 16.8232C11.4404 16.8232 12 16.2636 12 15.5732C12 14.8829 11.4404 14.3232 10.75 14.3232C10.0596 14.3232 9.5 14.8829 9.5 15.5732C9.5 16.2636 10.0596 16.8232 10.75 16.8232Z" fill="#193D23"/>
<path d="M14.25 16.8232C14.9404 16.8232 15.5 16.2636 15.5 15.5732C15.5 14.8829 14.9404 14.3232 14.25 14.3232C13.5596 14.3232 13 14.8829 13 15.5732C13 16.2636 13.5596 16.8232 14.25 16.8232Z" fill="#193D23"/>
<g opacity="0.4">
<path d="M12.4999 3.90332C12.0099 3.90332 11.6199 3.51332 11.6199 3.02332C11.6199 2.53332 12.0099 2.15332 12.4999 2.15332C12.9899 2.15332 13.3799 2.54332 13.3799 3.03332C13.3799 3.52332 12.9899 3.90332 12.4999 3.90332Z" fill="#353535"/>
<path d="M17.7499 4.17332C17.3299 4.17332 16.9899 3.83332 16.9899 3.42332C16.9899 3.01332 17.3299 2.67332 17.7399 2.67332C18.1499 2.67332 18.4999 3.01332 18.4999 3.42332C18.4999 3.83332 18.1699 4.17332 17.7499 4.17332Z" fill="#353535"/>
<path d="M7.24992 4.17332C6.83992 4.17332 6.49992 3.83332 6.49992 3.42332C6.49992 3.01332 6.82992 2.67332 7.24992 2.67332H7.25992C7.66992 2.67332 8.00992 3.01332 8.00992 3.42332C8.00992 3.83332 7.66992 4.17332 7.24992 4.17332Z" fill="#353535"/>
<path d="M12.4999 22.9533C12.0099 22.9533 11.6199 22.5633 11.6199 22.0733C11.6199 21.5833 12.0099 21.1933 12.4999 21.1933C12.9899 21.1933 13.3799 21.5833 13.3799 22.0733C13.3799 22.5633 12.9899 22.9533 12.4999 22.9533Z" fill="#353535"/>
<path d="M17.7499 22.4233C17.3299 22.4233 16.9899 22.0833 16.9899 21.6733C16.9899 21.2633 17.3299 20.9233 17.7399 20.9233C18.1499 20.9233 18.4999 21.2633 18.4999 21.6733C18.4999 22.0833 18.1699 22.4233 17.7499 22.4233Z" fill="#353535"/>
<path d="M7.24992 22.4233C6.83992 22.4233 6.49992 22.0833 6.49992 21.6733C6.49992 21.2633 6.82992 20.9233 7.24992 20.9233H7.25992C7.66992 20.9233 8.00992 21.2633 8.00992 21.6733C8.00992 22.0833 7.66992 22.4233 7.24992 22.4233Z" fill="#353535"/>
<path d="M2.04992 13.4533C1.56992 13.4533 1.16992 13.0633 1.16992 12.5833V12.5733C1.16992 12.0933 1.55992 11.6933 2.04992 11.6933C2.53992 11.6933 2.91992 12.0833 2.91992 12.5733C2.91992 13.0633 2.52992 13.4533 2.04992 13.4533Z" fill="#353535"/>
<path d="M4.24992 18.3233C3.83992 18.3233 3.49992 17.9833 3.49992 17.5733V17.5633C3.49992 17.1533 3.83992 16.8133 4.24992 16.8133C4.65992 16.8133 4.99992 17.1533 4.99992 17.5633C4.99992 17.9733 4.65992 18.3233 4.24992 18.3233Z" fill="#353535"/>
<path d="M4.24992 8.33332C3.83992 8.33332 3.49992 7.99332 3.49992 7.58332C3.49992 7.17332 3.83992 6.83332 4.24992 6.83332C4.65992 6.83332 4.99992 7.16332 4.99992 7.57332V7.58332C4.99992 7.99332 4.65992 8.33332 4.24992 8.33332Z" fill="#353535"/>
<path d="M22.9999 13.4533C22.5199 13.4533 22.1199 13.0633 22.1199 12.5833V12.5733C22.1199 12.0933 22.5099 11.6933 22.9999 11.6933C23.4899 11.6933 23.8799 12.0833 23.8799 12.5733C23.8799 13.0633 23.4799 13.4533 22.9999 13.4533Z" fill="#353535"/>
<path d="M20.7999 18.3233C20.3899 18.3233 20.0499 17.9933 20.0499 17.5733V17.5633C20.0499 17.1533 20.3899 16.8133 20.7999 16.8133C21.2099 16.8133 21.5499 17.1533 21.5499 17.5633C21.5499 17.9733 21.2099 18.3233 20.7999 18.3233Z" fill="#353535"/>
<path d="M20.7999 8.33332C20.3899 8.33332 20.0499 7.99332 20.0499 7.58332C20.0499 7.17332 20.3899 6.83332 20.7999 6.83332C21.2099 6.83332 21.5499 7.16332 21.5499 7.57332V7.58332C21.5499 7.99332 21.2099 8.33332 20.7999 8.33332Z" fill="#353535"/>
</g>
</svg>
