<svg width="24" height="25" viewBox="0 0 24 25" fill="none" xmlns="http://www.w3.org/2000/svg">
<path opacity="0.4" d="M12.89 5.95331H5.10999C3.39999 5.95331 2 7.35329 2 9.06329V20.4233C2 21.8733 3.04 22.4933 4.31 21.7833L8.23999 19.5933C8.65999 19.3633 9.34 19.3633 9.75 19.5933L13.68 21.7833C14.95 22.4933 15.99 21.8733 15.99 20.4233V9.06329C16 7.35329 14.6 5.95331 12.89 5.95331Z" fill="#6843F4"/>
<path d="M22 5.18329V16.5433C22 17.9933 20.96 18.6033 19.69 17.9033L16 15.8433V9.06329C16 7.35329 14.6 5.95331 12.89 5.95331H8V5.18329C8 3.47329 9.39999 2.0733 11.11 2.0733H18.89C20.6 2.0733 22 3.47329 22 5.18329Z" fill="#193D23"/>
</svg>
