<svg width="20" height="21" viewBox="0 0 20 21" fill="none" xmlns="http://www.w3.org/2000/svg">
<rect x="1.29688" y="1.25" width="18" height="19" rx="1.5" fill="white"/>
<rect x="1.29688" y="1.25" width="18" height="19" rx="1.5" stroke="#6843F4"/>
<path d="M6.28686 14.93C5.93886 14.93 5.59486 14.894 5.25486 14.822C4.91886 14.75 4.60886 14.652 4.32486 14.528C4.04486 14.4 3.81486 14.254 3.63486 14.09L4.08486 12.986C4.33686 13.222 4.65686 13.41 5.04486 13.55C5.43286 13.69 5.81886 13.76 6.20286 13.76C6.58286 13.76 6.91286 13.696 7.19286 13.568C7.47286 13.44 7.68886 13.26 7.84086 13.028C7.99686 12.796 8.07486 12.522 8.07486 12.206C8.07486 11.726 7.89886 11.352 7.54686 11.084C7.19886 10.816 6.73486 10.682 6.15486 10.682C5.99886 10.682 5.83686 10.694 5.66886 10.718C5.50086 10.738 5.33086 10.768 5.15886 10.808L4.76886 9.926L7.39686 7.478H3.70086V6.35H8.99286V7.388L6.49086 9.818C6.99086 9.81 7.46086 9.896 7.90086 10.076C8.34086 10.256 8.69486 10.53 8.96286 10.898C9.23486 11.262 9.37086 11.722 9.37086 12.278C9.37086 12.806 9.23886 13.27 8.97486 13.67C8.71086 14.066 8.34686 14.376 7.88286 14.6C7.41886 14.82 6.88686 14.93 6.28686 14.93ZM11.2072 14.75V6.35H16.6372V7.538H12.5512V9.806H16.0792V10.928H12.5512V13.55H16.6732V14.75H11.2072Z" fill="#6843F4"/>
</svg>
