<svg width="20" height="21" viewBox="0 0 20 21" fill="none" xmlns="http://www.w3.org/2000/svg">
<rect x="1.29688" y="1.25" width="18" height="19" rx="1.5" fill="white"/>
<rect x="1.29688" y="1.25" width="18" height="19" rx="1.5" stroke="#6843F4"/>
<path d="M3.79213 14.75V13.79L5.61013 12.128C6.18613 11.6 6.65013 11.146 7.00213 10.766C7.35413 10.382 7.61013 10.036 7.77013 9.728C7.93013 9.42 8.01013 9.108 8.01013 8.792C8.01013 8.332 7.85213 7.974 7.53613 7.718C7.22413 7.458 6.78813 7.328 6.22813 7.328C5.85613 7.328 5.50013 7.392 5.16013 7.52C4.82013 7.648 4.53013 7.834 4.29013 8.078L3.79813 7.1C4.13813 6.796 4.53013 6.566 4.97413 6.41C5.41813 6.25 5.88413 6.17 6.37213 6.17C6.95213 6.17 7.45813 6.274 7.89013 6.482C8.32613 6.686 8.66413 6.976 8.90413 7.352C9.14813 7.724 9.27013 8.16 9.27013 8.66C9.27013 9.008 9.20013 9.356 9.06013 9.704C8.92413 10.048 8.67813 10.436 8.32213 10.868C7.97013 11.3 7.47013 11.818 6.82213 12.422L5.53213 13.61H9.48013V14.75H3.79213ZM11.26 14.75V6.35H16.69V7.538H12.604V9.806H16.132V10.928H12.604V13.55H16.726V14.75H11.26Z" fill="#6843F4"/>
</svg>
