<svg width="20" height="20" viewBox="0 0 20 20" fill="none" xmlns="http://www.w3.org/2000/svg">
<rect x="0.558594" y="0.5" width="18" height="19" rx="1.5" fill="white"/>
<rect x="0.558594" y="0.5" width="18" height="19" rx="1.5" stroke="#6843F4"/>
<path d="M9.55932 13.5666C10.1595 13.5666 10.646 13.0801 10.646 12.48C10.646 11.8798 10.1595 11.3933 9.55932 11.3933C8.95917 11.3933 8.47266 11.8798 8.47266 12.48C8.47266 13.0801 8.95917 13.5666 9.55932 13.5666Z" fill="#6843F4"/>
<path d="M13.7459 8.35325V7.51992C13.7459 5.71992 13.3126 3.33325 9.55924 3.33325C5.80591 3.33325 5.37258 5.71992 5.37258 7.51992V8.35325C3.50591 8.58658 2.89258 9.53325 2.89258 11.8599V13.0999C2.89258 15.8333 3.72591 16.6666 6.45924 16.6666H12.6592C15.3926 16.6666 16.2259 15.8333 16.2259 13.0999V11.8599C16.2259 9.53325 15.6126 8.58658 13.7459 8.35325ZM9.55924 14.4933C8.44591 14.4933 7.54591 13.5866 7.54591 12.4799C7.54591 11.3666 8.45258 10.4666 9.55924 10.4666C10.6659 10.4666 11.5726 11.3733 11.5726 12.4799C11.5726 13.5933 10.6726 14.4933 9.55924 14.4933ZM6.45924 8.29325C6.40591 8.29325 6.35924 8.29325 6.30591 8.29325V7.51992C6.30591 5.56658 6.85924 4.26659 9.55924 4.26659C12.2592 4.26659 12.8126 5.56658 12.8126 7.51992V8.29992C12.7592 8.29992 12.7126 8.29992 12.6592 8.29992H6.45924V8.29325Z" fill="#6843F4"/>
</svg>
