<svg width="25" height="25" viewBox="0 0 25 25" fill="none" xmlns="http://www.w3.org/2000/svg">
<path opacity="0.4" d="M10.57 3.39322L3.64002 8.94321C2.86002 9.56321 2.36002 10.8732 2.53002 11.8532L3.86002 19.8132C4.10002 21.2332 5.46002 22.3832 6.90002 22.3832H18.1C19.53 22.3832 20.9 21.2232 21.14 19.8132L22.47 11.8532C22.63 10.8732 22.13 9.56321 21.36 8.94321L14.43 3.4032C13.36 2.5432 11.63 2.54322 10.57 3.39322Z" fill="#9D9D9D"/>
<path d="M12.5 16.0732C13.8807 16.0732 15 14.954 15 13.5732C15 12.1925 13.8807 11.0732 12.5 11.0732C11.1193 11.0732 10 12.1925 10 13.5732C10 14.954 11.1193 16.0732 12.5 16.0732Z" fill="#193D23"/>
</svg>
