<svg width="25" height="25" viewBox="0 0 25 25" fill="none" xmlns="http://www.w3.org/2000/svg">
<path d="M4.49988 15.0832L2.97989 13.5632C2.35989 12.9432 2.35989 11.9232 2.97989 11.3032L4.49988 9.78318C4.75988 9.52318 4.96988 9.01317 4.96988 8.65317V6.50321C4.96988 5.62321 5.68989 4.90317 6.56989 4.90317H8.71988C9.07988 4.90317 9.58989 4.6932 9.84989 4.4332L11.3699 2.91318C11.9899 2.29318 13.0099 2.29318 13.6299 2.91318L15.1499 4.4332C15.4099 4.6932 15.9199 4.90317 16.2799 4.90317H18.4299C19.3099 4.90317 20.0299 5.62321 20.0299 6.50321V8.65317C20.0299 9.01317 20.2399 9.52318 20.4999 9.78318L22.0199 11.3032C22.6399 11.9232 22.6399 12.9432 22.0199 13.5632L20.4999 15.0832C20.2399 15.3432 20.0299 15.8532 20.0299 16.2132V18.3632C20.0299 19.2432 19.3099 19.9632 18.4299 19.9632H16.2799C15.9199 19.9632 15.4099 20.1732 15.1499 20.4332L13.6299 21.9532C13.0099 22.5732 11.9899 22.5732 11.3699 21.9532L9.84989 20.4332C9.58989 20.1732 9.07988 19.9632 8.71988 19.9632H6.56989C5.68989 19.9632 4.96988 19.2432 4.96988 18.3632V16.2132C4.96988 15.8432 4.75988 15.3332 4.49988 15.0832Z" fill="#193D23"/>
<path d="M15.5049 16.4332C14.9449 16.4332 14.4949 15.9832 14.4949 15.4332C14.4949 14.8832 14.9449 14.4332 15.4949 14.4332C16.0449 14.4332 16.4949 14.8832 16.4949 15.4332C16.4949 15.9832 16.0549 16.4332 15.5049 16.4332Z" fill="#EBCCC2"/>
<path d="M9.51489 10.4332C8.95489 10.4332 8.50488 9.98317 8.50488 9.43317C8.50488 8.88317 8.95488 8.43317 9.50488 8.43317C10.0549 8.43317 10.5049 8.88317 10.5049 9.43317C10.5049 9.98317 10.0649 10.4332 9.51489 10.4332Z" fill="#EBCCC2"/>
<path d="M9.50482 16.1831C9.31482 16.1831 9.12482 16.1132 8.97482 15.9632C8.68482 15.6732 8.68482 15.1931 8.97482 14.9031L14.9748 8.90311C15.2648 8.61311 15.7448 8.61311 16.0348 8.90311C16.3248 9.19311 16.3248 9.67317 16.0348 9.96317L10.0348 15.9632C9.88482 16.1132 9.69482 16.1831 9.50482 16.1831Z" fill="#EBCCC2"/>
</svg>
