<svg width="29" height="29" viewBox="0 0 29 29" fill="none" xmlns="http://www.w3.org/2000/svg">
<rect x="0.574219" y="0.233093" width="28" height="28" rx="8" fill="#6843F4"/>
<g clip-path="url(#clip0_9574_69790)">
<rect x="2.57422" y="2.23309" width="24" height="24" rx="8" fill="#6843F4"/>
<path d="M5.73047 17.9733V13.3343C5.73047 11.5848 5.73047 10.9353 6.27396 10.3918C6.81745 9.84834 9.58974 9.62308 11.3392 9.62308H17.9251C19.6746 9.62308 22.3296 9.84834 22.8731 10.3918C23.4166 10.9353 23.4166 11.5848 23.4166 13.3343V14.8419C23.4166 18.3409 23.4166 20.0904 22.3296 21.1773C21.2427 22.2643 19.4932 22.2643 15.9942 22.2643H13.1529C9.65391 22.2643 7.90443 22.2643 6.81745 21.1773" stroke="white" stroke-width="1.5" stroke-linecap="round"/>
<path d="M17.7925 10.0292V10.0292C18.1214 8.6725 18.2859 7.99414 18.0996 7.46512C17.961 7.07161 17.6962 6.73496 17.3464 6.50756C16.8762 6.20184 16.1782 6.20184 14.7822 6.20184H14.366C12.97 6.20184 12.2719 6.20184 11.8017 6.50756C11.4519 6.73496 11.1871 7.07161 11.0486 7.46512C10.8622 7.99414 11.0267 8.6725 11.3556 10.0292V10.0292" stroke="white" stroke-width="1.5"/>
<path d="M14.5742 15.3061L14.5742 19.8874" stroke="white" stroke-width="1.5" stroke-linecap="round"/>
<path d="M16.8652 17.5965L12.284 17.5965" stroke="white" stroke-width="1.5" stroke-linecap="round"/>
<path d="M19.7051 13.0156L6.07728 13.0156" stroke="white" stroke-width="1.5" stroke-linecap="round"/>
</g>
<defs>
<clipPath id="clip0_9574_69790">
<rect x="2.57422" y="2.23309" width="24" height="24" rx="8" fill="white"/>
</clipPath>
</defs>
</svg>
