<svg width="25" height="25" viewBox="0 0 25 25" fill="none" xmlns="http://www.w3.org/2000/svg">
<g clip-path="url(#clip0_9574_69845)">
<path d="M3.81445 15.7634V11.1244C3.81445 9.37496 3.81445 8.72548 4.35794 8.18199C4.90144 7.6385 7.67373 7.41324 9.4232 7.41324H16.0091C17.7586 7.41324 20.4136 7.6385 20.9571 8.18199C21.5006 8.72548 21.5006 9.37496 21.5006 11.1244V12.6321C21.5006 16.131 21.5006 17.8805 20.4136 18.9675C19.3266 20.0545 17.5772 20.0545 14.0782 20.0545H11.2368C7.73789 20.0545 5.98842 20.0545 4.90144 18.9675" stroke="#6843F4" stroke-width="1.5" stroke-linecap="round"/>
<path d="M15.8765 7.81939V7.81939C16.2054 6.46266 16.3699 5.7843 16.1836 5.25528C16.045 4.86177 15.7802 4.52512 15.4304 4.29772C14.9602 3.992 14.2622 3.992 12.8661 3.992H12.45C11.0539 3.992 10.3559 3.992 9.8857 4.29772C9.53592 4.52512 9.27113 4.86177 9.13254 5.25528C8.94621 5.7843 9.11067 6.46266 9.43957 7.81939V7.81939" stroke="#6843F4" stroke-width="1.5"/>
<path d="M12.6582 13.0963L12.6582 17.6775" stroke="#6843F4" stroke-width="1.5" stroke-linecap="round"/>
<path d="M14.9492 15.3867L10.368 15.3867" stroke="#6843F4" stroke-width="1.5" stroke-linecap="round"/>
<path d="M17.7891 10.8057L4.16126 10.8057" stroke="#6843F4" stroke-width="1.5" stroke-linecap="round"/>
</g>
<defs>
<clipPath id="clip0_9574_69845">
<rect width="24" height="24" fill="white" transform="translate(0.658203 0.0232544)"/>
</clipPath>
</defs>
</svg>
