<svg width="25" height="25" viewBox="0 0 25 25" fill="none" xmlns="http://www.w3.org/2000/svg">
<g clip-path="url(#clip0_9574_69848)">
<path d="M12.6582 21.6362V14.7108V7.78549" stroke="#6843F4" stroke-width="1.5" stroke-linecap="round" stroke-linejoin="round"/>
<path d="M12.6582 12.6796L14.7207 10.6014L16.7832 8.52332" stroke="#6843F4" stroke-width="1.5" stroke-linecap="round" stroke-linejoin="round"/>
<path d="M12.6582 14.7108L10.4395 12.9047L8.2207 11.0985" stroke="#6843F4" stroke-width="1.5" stroke-linecap="round" stroke-linejoin="round"/>
<path d="M3.95583 9.80556C3.65415 10.6964 3.58399 11.6467 3.72041 12.5707C3.91943 13.9187 4.55813 15.2105 5.55902 16.1792C6.80348 17.3837 8.53552 18.0681 10.393 17.9218C10.9915 17.8747 11.5637 17.7444 12.0992 17.5431C13.3465 18.7735 15.0971 19.4755 16.9759 19.3276C20.4203 19.0563 22.9915 16.0311 22.7189 12.5707C22.5549 10.4882 21.3983 8.72264 19.7525 7.7059C19.5111 4.64079 16.4534 2.29895 12.967 2.57361C10.6953 2.75254 8.80333 4.12944 7.85665 6.03908C7.08851 6.31421 6.38781 6.70807 5.78779 7.20126" stroke="#6843F4" stroke-width="1.40317" stroke-linecap="round"/>
</g>
<defs>
<clipPath id="clip0_9574_69848">
<rect width="24" height="24" fill="white" transform="translate(0.658203 0.0232544)"/>
</clipPath>
</defs>
</svg>
