<svg width="29" height="29" viewBox="0 0 29 29" fill="none" xmlns="http://www.w3.org/2000/svg">
<rect x="0.556641" y="0.274689" width="28" height="28" rx="8" fill="#6843F4"/>
<g clip-path="url(#clip0_9574_69802)">
<rect x="2.55664" y="2.27469" width="24" height="24" rx="8" fill="#6843F4"/>
<path d="M11.0566 5.30607H11.8066V4.55609L11.0567 4.55607L11.0566 5.30607ZM8.36914 5.306L8.36916 4.556L7.97866 4.55599L7.75472 4.8759L8.36914 5.306ZM4.93164 10.306L4.31103 9.88488C4.08205 10.2223 4.16466 10.6809 4.497 10.9172L4.93164 10.306ZM7.74414 12.306H8.49414V11.919L8.17878 11.6948L7.74414 12.306ZM7.74414 23.2435H6.99414V23.9935H7.74414V23.2435ZM18.0566 5.30607L18.0566 4.55607L17.3066 4.55609V5.30607H18.0566ZM20.7441 5.306L21.3586 4.8759L21.1346 4.55599L20.7441 4.556L20.7441 5.306ZM24.1816 10.306L24.6163 10.9172C24.9486 10.6809 25.0312 10.2223 24.8022 9.88488L24.1816 10.306ZM21.3691 12.306L20.9345 11.6948L20.6191 11.919V12.306H21.3691ZM21.3691 23.2435V23.9935H22.1191V23.2435H21.3691ZM8.49414 19.6497C8.49414 19.2355 8.15835 18.8997 7.74414 18.8997C7.32993 18.8997 6.99414 19.2355 6.99414 19.6497H8.49414ZM6.99414 15.4935C6.99414 15.9077 7.32993 16.2435 7.74414 16.2435C8.15835 16.2435 8.49414 15.9077 8.49414 15.4935H6.99414ZM11.0567 4.55607L8.36916 4.556L8.36912 6.056L11.0566 6.05607L11.0567 4.55607ZM5.55225 10.7271C6.73899 8.97824 7.67414 7.6067 8.98356 5.7361L7.75472 4.8759C6.43914 6.7553 5.49929 8.13376 4.31103 9.88488L5.55225 10.7271ZM4.497 10.9172L7.3095 12.9172L8.17878 11.6948L5.36628 9.69479L4.497 10.9172ZM7.74414 23.9935H13.8691V22.4935H7.74414V23.9935ZM17.3066 5.30607C17.3066 6.54008 16.1576 7.68107 14.5566 7.68107V9.18107C16.8217 9.18107 18.8066 7.52383 18.8066 5.30607H17.3066ZM14.5566 7.68107C12.9557 7.68107 11.8066 6.54008 11.8066 5.30607H10.3066C10.3066 7.52383 12.2916 9.18107 14.5566 9.18107V7.68107ZM18.0567 6.05607L20.7442 6.056L20.7441 4.556L18.0566 4.55607L18.0567 6.05607ZM24.8022 9.88488C23.614 8.13376 22.6741 6.7553 21.3586 4.8759L20.1297 5.7361C21.4391 7.6067 22.3743 8.97824 23.561 10.7271L24.8022 9.88488ZM23.747 9.69479L20.9345 11.6948L21.8038 12.9172L24.6163 10.9172L23.747 9.69479ZM20.6191 12.306V23.2435H22.1191V12.306H20.6191ZM21.3691 22.4935H13.8691V23.9935H21.3691V22.4935ZM6.99414 19.6497V23.2435H8.49414V19.6497H6.99414ZM6.99414 12.306V15.4935H8.49414V12.306H6.99414Z" fill="white"/>
</g>
<defs>
<clipPath id="clip0_9574_69802">
<rect x="2.55664" y="2.27469" width="24" height="24" rx="8" fill="white"/>
</clipPath>
</defs>
</svg>
