<svg width="25" height="25" viewBox="0 0 25 25" fill="none" xmlns="http://www.w3.org/2000/svg">
<g clip-path="url(#clip0_9574_69847)">
<path d="M9.1582 3.05464H9.9082V2.30465L9.15822 2.30464L9.1582 3.05464ZM6.4707 3.05457L6.47072 2.30457L6.08022 2.30456L5.85628 2.62447L6.4707 3.05457ZM3.0332 8.05457L2.4126 7.63344C2.18362 7.97089 2.26622 8.42946 2.59856 8.66579L3.0332 8.05457ZM5.8457 10.0546H6.5957V9.66761L6.28035 9.44335L5.8457 10.0546ZM5.8457 20.9921H5.0957V21.7421H5.8457V20.9921ZM16.1582 3.05464L16.1582 2.30464L15.4082 2.30465V3.05464H16.1582ZM18.8457 3.05457L19.4601 2.62447L19.2362 2.30456L18.8457 2.30457L18.8457 3.05457ZM22.2832 8.05457L22.7178 8.66579C23.0502 8.42946 23.1328 7.97089 22.9038 7.63344L22.2832 8.05457ZM19.4707 10.0546L19.0361 9.44335L18.7207 9.66761V10.0546H19.4707ZM19.4707 20.9921V21.7421H20.2207V20.9921H19.4707ZM6.5957 17.3983C6.5957 16.9841 6.25992 16.6483 5.8457 16.6483C5.43149 16.6483 5.0957 16.9841 5.0957 17.3983H6.5957ZM5.0957 13.2421C5.0957 13.6563 5.43149 13.9921 5.8457 13.9921C6.25992 13.9921 6.5957 13.6563 6.5957 13.2421H5.0957ZM9.15822 2.30464L6.47072 2.30457L6.47068 3.80457L9.15818 3.80464L9.15822 2.30464ZM3.65381 8.47569C4.84055 6.72681 5.7757 5.35527 7.08513 3.48466L5.85628 2.62447C4.5407 4.50386 3.60085 5.88233 2.4126 7.63344L3.65381 8.47569ZM2.59856 8.66579L5.41106 10.6658L6.28035 9.44335L3.46785 7.44335L2.59856 8.66579ZM5.8457 21.7421H11.9707V20.2421H5.8457V21.7421ZM15.4082 3.05464C15.4082 4.28865 14.2592 5.42964 12.6582 5.42964V6.92964C14.9232 6.92964 16.9082 5.2724 16.9082 3.05464H15.4082ZM12.6582 5.42964C11.0572 5.42964 9.9082 4.28865 9.9082 3.05464H8.4082C8.4082 5.2724 10.3932 6.92964 12.6582 6.92964V5.42964ZM16.1582 3.80464L18.8457 3.80457L18.8457 2.30457L16.1582 2.30464L16.1582 3.80464ZM22.9038 7.63344C21.7156 5.88233 20.7757 4.50386 19.4601 2.62447L18.2313 3.48466C19.5407 5.35527 20.4759 6.72681 21.6626 8.47569L22.9038 7.63344ZM21.8486 7.44335L19.0361 9.44335L19.9053 10.6658L22.7178 8.66579L21.8486 7.44335ZM18.7207 10.0546V20.9921H20.2207V10.0546H18.7207ZM19.4707 20.2421H11.9707V21.7421H19.4707V20.2421ZM5.0957 17.3983V20.9921H6.5957V17.3983H5.0957ZM5.0957 10.0546V13.2421H6.5957V10.0546H5.0957Z" fill="#6843F4"/>
</g>
<defs>
<clipPath id="clip0_9574_69847">
<rect width="24" height="24" fill="white" transform="translate(0.658203 0.0232544)"/>
</clipPath>
</defs>
</svg>
