<svg width="29" height="29" viewBox="0 0 29 29" fill="none" xmlns="http://www.w3.org/2000/svg">
<rect x="0.949219" y="0.733032" width="28" height="28" rx="8" fill="#6843F4"/>
<g clip-path="url(#clip0_9574_69829)">
<rect x="2.94922" y="2.73303" width="24" height="24" rx="8" fill="#6843F4"/>
<rect x="12.1211" y="9.04651" width="6.01758" height="12.9976" rx="3.00879" stroke="white" stroke-width="1.5"/>
<path d="M24.6978 14.733C24.6978 20.1003 20.3167 24.4513 14.9495 24.4513C9.58222 24.4513 5.20117 20.1003 5.20117 14.733C5.20117 9.36578 9.58222 5.01477 14.9495 5.01477C16.3203 5.01477 17.6268 5.29861 18.8124 5.81071" stroke="white" stroke-width="1.5" stroke-linecap="round"/>
<path d="M9.6543 23.1274V18.6426C9.6543 16.9679 10.6834 15.5336 12.1438 14.9376M20.6064 22.5858V18.6426C20.6064 16.9679 19.5773 15.5336 18.117 14.9376" stroke="white" stroke-width="1.5"/>
<path d="M21.9749 6.49392C22.1246 6.03327 22.7763 6.03327 22.926 6.49392L23.3549 7.81406C23.4218 8.02008 23.6138 8.15956 23.8304 8.15956L25.2185 8.15956C25.7029 8.15956 25.9043 8.77936 25.5124 9.06406L24.3894 9.87996C24.2142 10.0073 24.1409 10.233 24.2078 10.439L24.6367 11.7591C24.7864 12.2198 24.2592 12.6028 23.8673 12.3181L22.7443 11.5022C22.5691 11.3749 22.3318 11.3749 22.1565 11.5022L21.0336 12.3181C20.6417 12.6028 20.1145 12.2198 20.2641 11.7591L20.6931 10.439C20.76 10.233 20.6867 10.0073 20.5114 9.87996L19.3885 9.06407C18.9966 8.77937 19.198 8.15956 19.6824 8.15956L21.0704 8.15956C21.2871 8.15956 21.479 8.02008 21.546 7.81406L21.9749 6.49392Z" fill="white"/>
</g>
<defs>
<clipPath id="clip0_9574_69829">
<rect x="2.94922" y="2.73303" width="24" height="24" rx="8" fill="white"/>
</clipPath>
</defs>
</svg>
