<svg width="25" height="25" viewBox="0 0 25 25" fill="none" xmlns="http://www.w3.org/2000/svg">
<g clip-path="url(#clip0_9574_69852)">
<rect x="9.83008" y="6.33673" width="6.01758" height="12.9976" rx="3.00879" stroke="#6843F4" stroke-width="1.5"/>
<path d="M22.4067 12.0233C22.4067 17.3905 18.0257 21.7415 12.6584 21.7415C7.2912 21.7415 2.91016 17.3905 2.91016 12.0233C2.91016 6.65601 7.2912 2.30499 12.6584 2.30499C14.0293 2.30499 15.3358 2.58883 16.5214 3.10093" stroke="#6843F4" stroke-width="1.5" stroke-linecap="round"/>
<path d="M7.36328 20.4176V15.9328C7.36328 14.2581 8.39242 12.8238 9.85276 12.2278M18.3154 19.876V15.9328C18.3154 14.2581 17.2863 12.8238 15.8259 12.2278" stroke="#6843F4" stroke-width="1.5"/>
<path d="M20.1594 2.32062L20.1617 6.15818C20.1619 6.49761 20.493 6.7382 20.8159 6.6335L24.4663 5.44978L20.8173 6.6378C20.4945 6.74288 20.3681 7.13216 20.5674 7.40689L22.8212 10.5129L20.5638 7.40954C20.3641 7.13505 19.9548 7.13505 19.7551 7.40954L17.4976 10.5129L19.7514 7.40689C19.9508 7.13216 19.8243 6.74288 19.5015 6.6378L15.8525 5.44978L19.5029 6.6335C19.8258 6.7382 20.157 6.49761 20.1572 6.15818L20.1594 2.32062Z" fill="#6843F4"/>
</g>
<defs>
<clipPath id="clip0_9574_69852">
<rect width="24" height="24" fill="white" transform="translate(0.658203 0.0232544)"/>
</clipPath>
</defs>
</svg>
