<svg width="29" height="29" viewBox="0 0 29 29" fill="none" xmlns="http://www.w3.org/2000/svg">
<rect x="0.181641" y="0.233032" width="28" height="28" rx="8" fill="#6843F4"/>
<g clip-path="url(#clip0_9574_69796)">
<rect x="2.18164" y="2.23303" width="24" height="24" rx="8" fill="#6843F4"/>
<path d="M6.70594 20.8778C6.88045 21.0745 7.06297 21.2646 7.25318 21.4475C8.43057 22.5801 9.90263 23.4395 11.5923 23.8922C16.9269 25.3216 22.4103 22.1558 23.8397 16.8211C25.2691 11.4865 22.1033 6.00311 16.7686 4.57369C11.434 3.14427 5.9506 6.31009 4.52118 11.6448C4.06689 13.3402 4.07675 15.0507 4.47289 16.6413C4.5353 16.8919 4.6073 17.1395 4.68858 17.3836" stroke="white" stroke-width="1.5" stroke-linecap="round"/>
<path d="M19.7801 10.3571C19.9539 9.98112 19.7899 9.53544 19.4139 9.36168C19.0379 9.18791 18.5923 9.35185 18.4185 9.72785L19.7801 10.3571ZM21.7067 20.8387C19.9933 19.1591 18.9316 16.8206 18.9316 14.2329H17.4316C17.4316 17.2399 18.6673 19.9597 20.6566 21.9099L21.7067 20.8387ZM18.4185 9.72785C17.7848 11.099 17.4316 12.6257 17.4316 14.2329H18.9316C18.9316 12.8474 19.2357 11.5351 19.7801 10.3571L18.4185 9.72785Z" fill="white"/>
<path d="M9.73106 19.0833C9.53762 19.4496 9.08388 19.5897 8.71761 19.3962C8.35134 19.2028 8.21124 18.7491 8.40468 18.3828L9.73106 19.0833ZM7.70129 6.69224C9.69199 8.60511 10.9316 11.2763 10.9316 14.233H9.43164C9.43164 11.7058 8.37402 9.41893 6.66199 7.77384L7.70129 6.69224ZM8.40468 18.3828C9.06101 17.1401 9.43164 15.7298 9.43164 14.233H10.9316C10.9316 15.9807 10.4982 17.6308 9.73106 19.0833L8.40468 18.3828Z" fill="white"/>
<path d="M14.1816 4.23303V24.233" stroke="white" stroke-width="1.5" stroke-linecap="round"/>
<path d="M24.1816 14.233L4.18164 14.233" stroke="white" stroke-width="1.5" stroke-linecap="round"/>
</g>
<defs>
<clipPath id="clip0_9574_69796">
<rect x="2.18164" y="2.23303" width="24" height="24" rx="8" fill="white"/>
</clipPath>
</defs>
</svg>
