<svg width="25" height="25" viewBox="0 0 25 25" fill="none" xmlns="http://www.w3.org/2000/svg">
<g clip-path="url(#clip0_9574_69846)">
<path d="M5.1825 18.668C5.35701 18.8647 5.53953 19.0548 5.72974 19.2377C6.90714 20.3703 8.37919 21.2297 10.0688 21.6824C15.4035 23.1119 20.8868 19.946 22.3163 14.6114C23.7457 9.2767 20.5799 3.79333 15.2452 2.36392C9.91053 0.934499 4.42717 4.10032 2.99775 9.43498C2.54345 11.1305 2.55332 12.8409 2.94945 14.4315C3.01186 14.6821 3.08386 14.9297 3.16514 15.1739" stroke="#6843F4" stroke-width="1.5" stroke-linecap="round"/>
<path d="M18.2567 8.14734C18.4304 7.77134 18.2665 7.32566 17.8905 7.15189C17.5145 6.97812 17.0688 7.14207 16.8951 7.51807L18.2567 8.14734ZM20.1832 18.6289C18.4698 16.9493 17.4082 14.6108 17.4082 12.0231H15.9082C15.9082 15.0301 17.1438 17.7499 19.1332 19.7001L20.1832 18.6289ZM16.8951 7.51807C16.2614 8.88923 15.9082 10.4159 15.9082 12.0231H17.4082C17.4082 10.6376 17.7123 9.32526 18.2567 8.14734L16.8951 7.51807Z" fill="#6843F4"/>
<path d="M8.20762 16.8735C8.01418 17.2398 7.56044 17.3799 7.19417 17.1864C6.82791 16.993 6.6878 16.5393 6.88124 16.173L8.20762 16.8735ZM6.17786 4.48246C8.16855 6.39532 9.4082 9.06655 9.4082 12.0233H7.9082C7.9082 9.49598 6.85058 7.20915 5.13855 5.56405L6.17786 4.48246ZM6.88124 16.173C7.53757 14.9303 7.9082 13.52 7.9082 12.0233H9.4082C9.4082 13.7709 8.97476 15.421 8.20762 16.8735L6.88124 16.173Z" fill="#6843F4"/>
<path d="M12.6582 2.02325V22.0233" stroke="#6843F4" stroke-width="1.5" stroke-linecap="round"/>
<path d="M22.6582 12.0233L2.6582 12.0233" stroke="#6843F4" stroke-width="1.5" stroke-linecap="round"/>
</g>
<defs>
<clipPath id="clip0_9574_69846">
<rect width="24" height="24" fill="white" transform="translate(0.658203 0.0232544)"/>
</clipPath>
</defs>
</svg>
