<svg width="53" height="53" viewBox="0 0 53 53" fill="none" xmlns="http://www.w3.org/2000/svg">
<path d="M3.85986 31.7925V49.3525" stroke="#1D1D1B" stroke-linecap="round" stroke-linejoin="round"/>
<path d="M29.6602 31.7925V49.3525" stroke="#1D1D1B" stroke-linecap="round" stroke-linejoin="round"/>
<path d="M27.2002 21.5325V34.9925" stroke="#1D1D1B" stroke-linecap="round" stroke-linejoin="round"/>
<path d="M7.31982 21.5325V35.0825" stroke="#1D1D1B" stroke-linecap="round" stroke-linejoin="round"/>
<path d="M7.62012 22.9827H26.9901" stroke="#1D1D1B" stroke-linecap="round" stroke-linejoin="round"/>
<path d="M4.08008 46.2925H29.4601" stroke="#1D1D1B" stroke-linecap="round" stroke-linejoin="round"/>
<path d="M4.08008 37.7227H29.6601" stroke="#1D1D1B" stroke-linecap="round" stroke-linejoin="round"/>
<path d="M8.77979 33.9625V31.6525C8.77979 30.9789 9.04739 30.3328 9.52373 29.8565C10.0001 29.3802 10.6461 29.1125 11.3198 29.1125H23.3198C23.9934 29.1125 24.6395 29.3802 25.1158 29.8565C25.5922 30.3328 25.8598 30.9789 25.8598 31.6525V33.9625C25.8571 34.3586 25.6979 34.7376 25.4169 35.0168C25.1359 35.2959 24.7559 35.4526 24.3598 35.4526H10.3598C10.157 35.4634 9.95416 35.4329 9.7635 35.363C9.57285 35.2932 9.39837 35.1853 9.25064 35.046C9.10291 34.9067 8.985 34.7388 8.90407 34.5526C8.82313 34.3663 8.78085 34.1656 8.77979 33.9625Z" fill="#7F4AFC"/>
<path d="M29.2599 35.6726H3.85986" stroke="#1D1D1B" stroke-linecap="round" stroke-linejoin="round"/>
<path d="M34.2901 40.9326V11.4626C34.2888 11.2542 34.3286 11.0477 34.4075 10.8548C34.4863 10.662 34.6024 10.4866 34.7493 10.3389C34.8961 10.1911 35.0708 10.0738 35.2631 9.99378C35.4555 9.91375 35.6617 9.87255 35.8701 9.87256H39.6601C40.0791 9.87256 40.481 10.039 40.7773 10.3353C41.0736 10.6316 41.2401 11.0335 41.2401 11.4526V12.4526" stroke="black" stroke-miterlimit="10"/>
<path d="M38.21 22.8525V25.1425" stroke="#7F4AFC" stroke-linecap="round" stroke-linejoin="round"/>
<path d="M41.2402 22.8525V25.1425" stroke="#7F4AFC" stroke-linecap="round" stroke-linejoin="round"/>
<path d="M44.2798 22.8525V25.1425" stroke="#7F4AFC" stroke-linecap="round" stroke-linejoin="round"/>
<path d="M38.21 27.4226V29.7226" stroke="#7F4AFC" stroke-linecap="round" stroke-linejoin="round"/>
<path d="M41.2402 27.4226V29.7226" stroke="#7F4AFC" stroke-linecap="round" stroke-linejoin="round"/>
<path d="M44.2798 27.4226V29.7226" stroke="#7F4AFC" stroke-linecap="round" stroke-linejoin="round"/>
<path d="M38.21 18.5225V20.8225" stroke="#7F4AFC" stroke-linecap="round" stroke-linejoin="round"/>
<path d="M41.2402 18.5225V20.8225" stroke="#7F4AFC" stroke-linecap="round" stroke-linejoin="round"/>
<path d="M44.2798 18.5225V20.8225" stroke="#7F4AFC" stroke-linecap="round" stroke-linejoin="round"/>
<path d="M38.21 14.3325V16.6325" stroke="#7F4AFC" stroke-linecap="round" stroke-linejoin="round"/>
<path d="M41.2402 14.3325V16.6325" stroke="#7F4AFC" stroke-linecap="round" stroke-linejoin="round"/>
<path d="M44.2798 14.3325V16.6325" stroke="#7F4AFC" stroke-linecap="round" stroke-linejoin="round"/>
<path d="M15.0301 18.6425C16.085 18.6425 16.9401 17.7874 16.9401 16.7325C16.9401 15.6776 16.085 14.8225 15.0301 14.8225C13.9753 14.8225 13.1201 15.6776 13.1201 16.7325C13.1201 17.7874 13.9753 18.6425 15.0301 18.6425Z" stroke="#7F4AFC" stroke-linecap="round" stroke-linejoin="round"/>
<path d="M21.62 15.8325C24.4477 15.8325 26.74 13.5402 26.74 10.7125C26.74 7.88483 24.4477 5.59253 21.62 5.59253C18.7923 5.59253 16.5 7.88483 16.5 10.7125C16.5 13.5402 18.7923 15.8325 21.62 15.8325Z" stroke="#7F4AFC" stroke-linecap="round" stroke-linejoin="round"/>
<path d="M11.7402 9.52263C11.7402 8.77206 12.0384 8.05224 12.5691 7.52151C13.0999 6.99079 13.8197 6.69263 14.5702 6.69263" stroke="#7F4AFC" stroke-linecap="round" stroke-linejoin="round"/>
<path d="M11.7402 9.52263C11.7402 8.77206 11.442 8.05224 10.9113 7.52151C10.3805 6.99079 9.66072 6.69263 8.91016 6.69263" stroke="#7F4AFC" stroke-linecap="round" stroke-linejoin="round"/>
<path d="M11.7402 3.80249C11.7402 4.55305 11.442 5.27287 10.9113 5.8036C10.3805 6.33433 9.66072 6.63249 8.91016 6.63249" stroke="#7F4AFC" stroke-linecap="round" stroke-linejoin="round"/>
<path d="M11.7402 3.80249C11.7402 4.55305 12.0384 5.27287 12.5691 5.8036C13.0999 6.33433 13.8197 6.63249 14.5702 6.63249" stroke="#7F4AFC" stroke-linecap="round" stroke-linejoin="round"/>
<path d="M47.9101 5.64258H31.6001V41.4226H47.9101V5.64258Z" stroke="#7F4AFC" stroke-linecap="round" stroke-linejoin="round"/>
<path d="M36.6001 12.7524H45.9601" stroke="black" stroke-miterlimit="10"/>
<path d="M7.36992 22.0125C8.17073 22.0125 8.81992 21.3634 8.81992 20.5625C8.81992 19.7617 8.17073 19.1125 7.36992 19.1125C6.56911 19.1125 5.91992 19.7617 5.91992 20.5625C5.91992 21.3634 6.56911 22.0125 7.36992 22.0125Z" fill="black"/>
<path d="M27.22 22.0125C28.0208 22.0125 28.67 21.3634 28.67 20.5625C28.67 19.7617 28.0208 19.1125 27.22 19.1125C26.4192 19.1125 25.77 19.7617 25.77 20.5625C25.77 21.3634 26.4192 22.0125 27.22 22.0125Z" fill="black"/>
<path d="M3.8499 31.9425C4.65072 31.9425 5.2999 31.2933 5.2999 30.4925C5.2999 29.6917 4.65072 29.0425 3.8499 29.0425C3.04909 29.0425 2.3999 29.6917 2.3999 30.4925C2.3999 31.2933 3.04909 31.9425 3.8499 31.9425Z" fill="black"/>
<path d="M29.6502 31.9425C30.451 31.9425 31.1002 31.2933 31.1002 30.4925C31.1002 29.6917 30.451 29.0425 29.6502 29.0425C28.8494 29.0425 28.2002 29.6917 28.2002 30.4925C28.2002 31.2933 28.8494 31.9425 29.6502 31.9425Z" fill="black"/>
</svg>
