<svg width="53" height="53" viewBox="0 0 53 53" fill="none" xmlns="http://www.w3.org/2000/svg">
<path d="M25.7498 22.5124V18.1824C25.7498 18.1186 25.7625 18.0553 25.7873 17.9964C25.812 17.9375 25.8483 17.8841 25.8939 17.8394C25.9396 17.7947 25.9937 17.7596 26.0531 17.7361C26.1125 17.7125 26.176 17.7011 26.2398 17.7024H27.7498C27.8771 17.7024 27.9992 17.753 28.0892 17.843C28.1793 17.933 28.2298 18.0551 28.2298 18.1824V20.1824H31.4198V16.5024C31.4198 15.972 31.2091 15.4633 30.834 15.0882C30.459 14.7132 29.9503 14.5024 29.4198 14.5024H24.5698C24.0394 14.5024 23.5307 14.7132 23.1556 15.0882C22.7805 15.4633 22.5698 15.972 22.5698 16.5024V22.5024" stroke="black" stroke-miterlimit="10"/>
<path d="M7.35986 28.4526V49.3526H46.1399V28.4526" stroke="black" stroke-miterlimit="10"/>
<path d="M42.5902 22.5126V5.20264H10.9102V22.5126" stroke="black" stroke-miterlimit="10"/>
<path d="M26.75 34.5024V49.4024" stroke="black" stroke-miterlimit="10"/>
<path d="M5.41992 22.7725L5.53992 26.6625C8.62992 31.1925 16.9599 34.4425 26.7499 34.4425C36.5399 34.4425 44.8699 31.1925 47.9599 26.6625L48.0799 22.7725H5.41992Z" stroke="#7F4AFC" stroke-miterlimit="10"/>
<path d="M21 26.6426H5.79004" stroke="#7F4AFC" stroke-miterlimit="10"/>
<path d="M37.6702 22.6926V20.3826H33.9102V22.6926" stroke="#7F4AFC" stroke-miterlimit="10"/>
<path d="M19.5901 22.6926V20.3826H15.8301V22.6926" stroke="#7F4AFC" stroke-miterlimit="10"/>
<path d="M40.3298 13.8725V9.20249C40.3298 8.69858 40.1296 8.21531 39.7733 7.85899C39.417 7.50267 38.9337 7.30249 38.4298 7.30249H29.0698" stroke="#7F4AFC" stroke-miterlimit="10"/>
<path d="M31.0802 36.3025H28.9902V37.8525H31.0802V36.3025Z" fill="black"/>
<path d="M24.5099 36.3025H22.4199V37.8525H24.5099V36.3025Z" fill="black"/>
</svg>
