<svg width="52" height="52" viewBox="0 0 52 52" fill="none" xmlns="http://www.w3.org/2000/svg">
<path d="M16.9101 36.09C18.8557 35.4962 20.9204 35.4067 22.9101 35.83L24.5301 34.21C24.6846 34.0558 24.8072 33.8727 24.8908 33.6711C24.9745 33.4695 25.0175 33.2533 25.0175 33.035C25.0175 32.8168 24.9745 32.6006 24.8908 32.399C24.8072 32.1974 24.6846 32.0142 24.5301 31.86L20.9301 28.3C20.7768 28.1458 20.5945 28.0235 20.3937 27.94C20.1929 27.8565 19.9776 27.8135 19.7601 27.8135C19.5426 27.8135 19.3273 27.8565 19.1265 27.94C18.9257 28.0235 18.7434 28.1458 18.5901 28.3L15.0001 31.86C14.8456 32.0142 14.723 32.1974 14.6394 32.399C14.5557 32.6006 14.5127 32.8168 14.5127 33.035C14.5127 33.2533 14.5557 33.4695 14.6394 33.6711C14.723 33.8727 14.8456 34.0558 15.0001 34.21L16.9101 36.09Z" fill="#7F4AFC"/>
<path d="M37.0004 31.86L33.4104 28.3C33.257 28.1458 33.0747 28.0235 32.8739 27.94C32.6731 27.8565 32.4578 27.8135 32.2404 27.8135C32.0229 27.8135 31.8076 27.8565 31.6068 27.94C31.406 28.0235 31.2237 28.1458 31.0704 28.3L27.5104 31.86C27.3559 32.0142 27.2333 32.1974 27.1496 32.399C27.066 32.6006 27.0229 32.8168 27.0229 33.035C27.0229 33.2533 27.066 33.4695 27.1496 33.6711C27.2333 33.8727 27.3559 34.0558 27.5104 34.21L28.7304 35.43C29.3004 35.37 29.8704 35.31 30.4504 35.29C31.3304 35.29 33.8304 35.34 35.0004 36.18L37.0004 34.18C37.3033 33.8699 37.4729 33.4536 37.4729 33.02C37.4729 32.5865 37.3033 32.1702 37.0004 31.86Z" fill="#7F4AFC"/>
<path d="M33.4901 9.11987L27.5801 15.3199" stroke="#7F4AFC" stroke-linecap="round" stroke-linejoin="round"/>
<path d="M35.0201 12.6399L29.1001 18.8299" stroke="#7F4AFC" stroke-linecap="round" stroke-linejoin="round"/>
<path d="M42.8502 41.1499L49.3202 42.6799V3.17993L26.2002 6.17993" stroke="#7F4AFC" stroke-linecap="round" stroke-linejoin="round"/>
<path d="M25.8002 24.8999V6.17993L2.68018 3.17993V42.6799L8.79018 41.2399" stroke="#7F4AFC" stroke-linecap="round" stroke-linejoin="round"/>
<path d="M44.7202 20.4299C44.7202 20.4299 43.7202 33.3699 43.7202 43.0599L49.4702 42.8999V22.0499C49.4702 22.0499 47.7602 18.8099 44.7202 20.4299Z" fill="#7F4AFC"/>
<path d="M43.4102 43.4199V43.0599C43.4102 33.4699 44.3502 20.5399 44.4102 20.4099V20.2099L44.5802 20.1199C47.9002 18.3499 49.8302 21.8499 49.8502 21.8799V21.9599V43.2499L43.4102 43.4199ZM45.0602 20.6599C44.9402 22.3099 44.1402 33.8299 44.1202 42.6599L49.1202 42.5299V22.1499C48.8902 21.6999 47.4302 19.5299 45.0602 20.6599Z" fill="#7F4AFC"/>
<path d="M37.9302 4.75982C37.9302 4.75982 40.6502 26.0998 49.5102 27.9998V3.06982L37.9302 4.75982Z" fill="#7F4AFC"/>
<path d="M49.86 28.4599L49.44 28.3699C47.33 27.9199 45.37 26.2999 43.63 23.5299C42.0364 20.8556 40.7897 17.9892 39.92 14.9999C38.8623 11.6765 38.0797 8.27166 37.58 4.81992L37.52 4.35992L49.86 2.66992V28.4599Z" fill="#7F4AFC"/>
<path d="M46.1703 41.28C46.0757 41.2748 45.9867 41.2336 45.9216 41.1648C45.8564 41.0959 45.8202 41.0047 45.8203 40.91C45.8203 40.84 46.0303 33.91 46.5603 26.16C45.2703 23.08 44.0603 13.33 44.0103 12.91C44.0048 12.8639 44.0084 12.8173 44.021 12.7727C44.0336 12.7281 44.055 12.6864 44.0838 12.6502C44.1127 12.6139 44.1484 12.5837 44.189 12.5613C44.2296 12.539 44.2743 12.5249 44.3203 12.52C44.3666 12.5129 44.4137 12.5155 44.4589 12.5276C44.5041 12.5396 44.5463 12.5609 44.5829 12.59C44.6195 12.619 44.6497 12.6554 44.6717 12.6967C44.6936 12.738 44.7067 12.7833 44.7103 12.83C44.7103 12.93 45.9803 23.07 47.2403 25.96V26.04V26.12C46.7103 33.89 46.5003 40.87 46.5003 40.94C46.498 41.0277 46.4627 41.1113 46.4016 41.1743C46.3405 41.2373 46.258 41.275 46.1703 41.28Z" fill="white"/>
<path d="M7.28023 20.4299C7.28023 20.4299 8.28023 33.3699 8.28023 43.0599L2.49023 42.8999V22.0499C2.49023 22.0499 4.24023 18.8099 7.28023 20.4299Z" fill="#7F4AFC"/>
<path d="M8.5899 43.4199V43.0599C8.5899 33.4699 7.6499 20.5399 7.5899 20.4099V20.2099L7.4199 20.1199C4.0999 18.3499 2.1699 21.8499 2.1499 21.8799V21.9599V43.2499L8.5899 43.4199ZM6.9399 20.6599C7.0599 22.3099 7.8599 33.8299 7.8799 42.6599L2.8799 42.5299V22.1499C3.1099 21.6999 4.5699 19.5299 6.9399 20.6599Z" fill="#7F4AFC"/>
<path d="M13.7402 5.04982C13.7402 5.04982 11.3502 26.0998 2.49023 27.9998V3.06982L13.7402 5.04982Z" fill="#7F4AFC"/>
<path d="M2.14014 28.4599L2.56014 28.3699C4.67014 27.9199 6.63014 26.2999 8.37014 23.5299C9.96378 20.8556 11.2105 17.9892 12.0801 14.9999C13.1253 11.8015 13.7964 8.4928 14.0801 5.13993L14.1401 4.67993L2.14014 2.67993V28.4599ZM13.3201 5.45993C12.9926 8.59668 12.3494 11.6924 11.4001 14.6999C10.5606 17.63 9.34727 20.4397 7.79014 23.0599C6.28014 25.4599 4.62014 26.9399 2.85014 27.4699V3.46993L13.3201 5.45993Z" fill="#7F4AFC"/>
<path d="M5.83002 41.28C5.92464 41.2748 6.01369 41.2336 6.07881 41.1648C6.14393 41.0959 6.18016 41.0047 6.18002 40.91C6.18002 40.84 5.97002 33.91 5.44002 26.16C6.74002 23.08 8.00002 13.33 8.00002 12.91C8.00558 12.8639 8.00195 12.8173 7.98934 12.7727C7.97672 12.7281 7.95538 12.6864 7.92654 12.6502C7.8977 12.6139 7.86194 12.5837 7.82134 12.5613C7.78074 12.539 7.7361 12.5249 7.69002 12.52C7.64379 12.5129 7.59662 12.5155 7.55144 12.5276C7.50626 12.5396 7.46405 12.5609 7.42745 12.59C7.39085 12.619 7.36064 12.6554 7.33871 12.6967C7.31679 12.738 7.30362 12.7833 7.30002 12.83C7.28002 12.93 6.00002 23.07 4.77002 26V26.08V26.16C5.30002 33.93 5.51002 40.91 5.51002 40.98C5.52119 41.0589 5.559 41.1317 5.61719 41.1863C5.67539 41.2409 5.75048 41.2739 5.83002 41.28Z" fill="white"/>
<path d="M7.99 24.74L2.25 26.74" stroke="#1D1D1B" stroke-width="0.75" stroke-linecap="round" stroke-linejoin="round"/>
<path d="M44.0103 24.74L49.7503 26.74" stroke="#1D1D1B" stroke-width="0.75" stroke-linecap="round" stroke-linejoin="round"/>
<path d="M42.1001 31.2H40.8001C39.2979 31.2 38.0801 32.4177 38.0801 33.9199V35.22C38.0801 36.7222 39.2979 37.9399 40.8001 37.9399H42.1001C43.6023 37.9399 44.8201 36.7222 44.8201 35.22V33.9199C44.8201 32.4177 43.6023 31.2 42.1001 31.2Z" fill="white"/>
<path d="M10.9399 31.48H9.63992C8.13771 31.48 6.91992 32.6978 6.91992 34.2V35.5C6.91992 37.0022 8.13771 38.22 9.63992 38.22H10.9399C12.4421 38.22 13.6599 37.0022 13.6599 35.5V34.2C13.6599 32.6978 12.4421 31.48 10.9399 31.48Z" fill="white"/>
<path d="M14.8101 5.18994V25.6699" stroke="#7F4AFC" stroke-linecap="round" stroke-linejoin="round"/>
<path d="M36.8604 5.18994V25.4799" stroke="#7F4AFC" stroke-linecap="round" stroke-linejoin="round"/>
<path d="M42.9401 40.97H9.06006V45.66H42.9401V40.97Z" stroke="black" stroke-linecap="round" stroke-linejoin="round"/>
<path d="M13.0703 40.78V29.57C13.0833 28.944 13.2197 28.3267 13.4716 27.7535C13.7235 27.1803 14.086 26.6624 14.5384 26.2295C14.9908 25.7967 15.5242 25.4573 16.1079 25.2308C16.6917 25.0044 17.3144 24.8954 17.9403 24.91H34.0003C34.6263 24.8954 35.249 25.0044 35.8327 25.2308C36.4165 25.4573 36.9498 25.7967 37.4022 26.2295C37.8546 26.6624 38.2171 27.1803 38.469 27.7535C38.721 28.3267 38.8573 28.944 38.8703 29.57V40.78" stroke="black" stroke-linecap="round" stroke-linejoin="round"/>
<path d="M13.0703 40.5101V40.3801C13.0833 39.7536 13.2196 39.1359 13.4714 38.5621C13.7232 37.9883 14.0856 37.4698 14.5378 37.0361C14.9901 36.6025 15.5233 36.2621 16.1071 36.0346C16.691 35.8071 17.3139 35.6968 17.9403 35.7101H34.0003C34.6268 35.6968 35.2497 35.8071 35.8335 36.0346C36.4173 36.2621 36.9506 36.6025 37.4028 37.0361C37.8551 37.4698 38.2174 37.9883 38.4692 38.5621C38.721 39.1359 38.8573 39.7536 38.8703 40.3801V40.5101" stroke="black" stroke-linecap="round" stroke-linejoin="round"/>
<path d="M12.9302 31.6999C12.5128 31.356 12.0264 31.1059 11.5038 30.9666C10.9813 30.8273 10.4349 30.802 9.90169 30.8925C9.36853 30.9831 8.86107 31.1872 8.41378 31.4912C7.96649 31.7951 7.58982 32.1917 7.30935 32.6541C7.02887 33.1165 6.85116 33.6338 6.78827 34.1709C6.72538 34.7081 6.77879 35.2524 6.94487 35.7671C7.11094 36.2818 7.3858 36.7547 7.75078 37.1537C8.11576 37.5528 8.56233 37.8687 9.06017 38.0799V49.1699H11.5002L13.5002 45.8499" stroke="black" stroke-linecap="round" stroke-linejoin="round"/>
<path d="M39.07 31.6999C39.4874 31.356 39.9738 31.1059 40.4964 30.9666C41.0189 30.8273 41.5653 30.802 42.0985 30.8925C42.6316 30.9831 43.1391 31.1872 43.5864 31.4912C44.0337 31.7951 44.4103 32.1917 44.6908 32.6541C44.9713 33.1165 45.149 33.6338 45.2119 34.1709C45.2748 34.7081 45.2214 35.2524 45.0553 35.7671C44.8892 36.2818 44.6144 36.7547 44.2494 37.1537C43.8844 37.5528 43.4378 37.8687 42.94 38.0799V49.1699H40.5L38.5 45.8499" stroke="black" stroke-linecap="round" stroke-linejoin="round"/>
</svg>
